<?xml version="1.0" encoding="utf-8"?>
<svg width="114px" height="114px" viewBox="0 0 114 114" version="1.1" xmlns:xlink="http://www.w3.org/1999/xlink" xmlns="http://www.w3.org/2000/svg">
  <desc>Created with Lunacy</desc>
  <defs>
    <path d="M32.5 65C50.4493 65 65 50.4493 65 32.5C65 14.5507 50.4493 0 32.5 0C14.5507 0 0 14.5507 0 32.5C0 50.4493 14.5507 65 32.5 65Z" id="path_1" />
    <clipPath id="mask_1">
      <use xlink:href="#path_1" />
    </clipPath>
  </defs>
  <g id="Group-4" transform="translate(0.5 0.5)">
    <path d="M56.499 0L56.501 0Q57.888 0 59.2733 0.0680555Q60.6586 0.136111 62.0389 0.272058Q63.4192 0.408005 64.7911 0.611516Q66.1631 0.815027 67.5234 1.08561Q68.8837 1.3562 70.2291 1.6932Q71.5745 2.03021 72.9018 2.43283Q74.229 2.83544 75.5349 3.3027Q76.8408 3.76996 78.1222 4.30073Q79.4036 4.8315 80.6574 5.42451Q81.9112 6.01752 83.1344 6.67133Q84.3576 7.32514 85.5473 8.03819Q86.7369 8.75124 87.8902 9.5218Q89.0434 10.2924 90.1574 11.1186Q91.2714 11.9448 92.3436 12.8247Q93.4157 13.7046 94.4434 14.636Q95.4711 15.5674 96.4518 16.5482Q97.4326 17.5289 98.364 18.5566Q99.2954 19.5843 100.175 20.6564Q101.055 21.7286 101.881 22.8426Q102.708 23.9566 103.478 25.1098Q104.249 26.2631 104.962 27.4527Q105.675 28.6424 106.329 29.8656Q106.982 31.0888 107.575 32.3426Q108.168 33.5964 108.699 34.8778Q109.23 36.1592 109.697 37.4651Q110.165 38.771 110.567 40.0982Q110.97 41.4255 111.307 42.7709Q111.644 44.1163 111.914 45.4766Q112.185 46.8369 112.388 48.2089Q112.592 49.5808 112.728 50.9611Q112.864 52.3414 112.932 53.7267Q113 55.112 113 56.499L113 56.501Q113 57.888 112.932 59.2733Q112.864 60.6586 112.728 62.0389Q112.592 63.4192 112.388 64.7911Q112.185 66.1631 111.914 67.5234Q111.644 68.8837 111.307 70.2291Q110.97 71.5745 110.567 72.9018Q110.165 74.229 109.697 75.5349Q109.23 76.8408 108.699 78.1222Q108.168 79.4036 107.575 80.6574Q106.982 81.9112 106.329 83.1344Q105.675 84.3576 104.962 85.5473Q104.249 86.7369 103.478 87.8902Q102.708 89.0434 101.881 90.1574Q101.055 91.2714 100.175 92.3436Q99.2954 93.4157 98.364 94.4434Q97.4326 95.4711 96.4518 96.4518Q95.4711 97.4326 94.4434 98.364Q93.4157 99.2954 92.3436 100.175Q91.2714 101.055 90.1574 101.881Q89.0434 102.708 87.8902 103.478Q86.7369 104.249 85.5473 104.962Q84.3576 105.675 83.1344 106.329Q81.9112 106.982 80.6574 107.575Q79.4036 108.168 78.1222 108.699Q76.8408 109.23 75.5349 109.697Q74.229 110.165 72.9018 110.567Q71.5745 110.97 70.2291 111.307Q68.8837 111.644 67.5234 111.914Q66.1631 112.185 64.7911 112.388Q63.4192 112.592 62.0389 112.728Q60.6586 112.864 59.2733 112.932Q57.888 113 56.501 113L56.499 113Q55.112 113 53.7267 112.932Q52.3414 112.864 50.9611 112.728Q49.5808 112.592 48.2089 112.388Q46.8369 112.185 45.4766 111.914Q44.1163 111.644 42.7709 111.307Q41.4255 110.97 40.0982 110.567Q38.771 110.165 37.4651 109.697Q36.1592 109.23 34.8778 108.699Q33.5964 108.168 32.3426 107.575Q31.0888 106.982 29.8656 106.329Q28.6424 105.675 27.4527 104.962Q26.2631 104.249 25.1098 103.478Q23.9566 102.708 22.8426 101.881Q21.7286 101.055 20.6564 100.175Q19.5843 99.2954 18.5566 98.364Q17.5289 97.4326 16.5482 96.4518Q15.5674 95.4711 14.636 94.4434Q13.7046 93.4157 12.8247 92.3436Q11.9448 91.2714 11.1186 90.1574Q10.2924 89.0434 9.5218 87.8902Q8.75124 86.7369 8.03819 85.5473Q7.32514 84.3576 6.67133 83.1344Q6.01752 81.9112 5.42451 80.6574Q4.8315 79.4036 4.30073 78.1222Q3.76996 76.8408 3.3027 75.5349Q2.83544 74.229 2.43283 72.9018Q2.03021 71.5745 1.6932 70.2291Q1.3562 68.8837 1.08561 67.5234Q0.815027 66.1631 0.611516 64.7911Q0.408005 63.4192 0.272058 62.0389Q0.136111 60.6586 0.0680555 59.2733Q0 57.888 0 56.501L0 56.499Q0 55.112 0.0680555 53.7267Q0.136111 52.3414 0.272058 50.9611Q0.408005 49.5808 0.611516 48.2089Q0.815027 46.8369 1.08561 45.4766Q1.3562 44.1163 1.6932 42.7709Q2.03021 41.4255 2.43283 40.0982Q2.83544 38.771 3.3027 37.4651Q3.76996 36.1592 4.30073 34.8778Q4.8315 33.5964 5.42451 32.3426Q6.01752 31.0888 6.67133 29.8656Q7.32514 28.6424 8.03819 27.4527Q8.75124 26.2631 9.5218 25.1098Q10.2924 23.9566 11.1186 22.8426Q11.9448 21.7286 12.8247 20.6564Q13.7046 19.5843 14.636 18.5566Q15.5674 17.5289 16.5482 16.5482Q17.5289 15.5674 18.5566 14.636Q19.5843 13.7046 20.6564 12.8247Q21.7286 11.9448 22.8426 11.1186Q23.9566 10.2924 25.1098 9.5218Q26.2631 8.75124 27.4527 8.03819Q28.6424 7.32514 29.8656 6.67133Q31.0888 6.01752 32.3426 5.42451Q33.5964 4.8315 34.8778 4.30073Q36.1592 3.76996 37.4651 3.3027Q38.771 2.83544 40.0982 2.43283Q41.4255 2.03021 42.7709 1.6932Q44.1163 1.3562 45.4766 1.08561Q46.8369 0.815027 48.2089 0.611516Q49.5808 0.408005 50.9611 0.272058Q52.3414 0.136111 53.7267 0.0680555Q55.112 0 56.499 0L56.499 0Z" id="Rectangle" fill="#FFE9E9" stroke="none" />
    <g id="Bitmap" transform="translate(24 22)">
      <path d="M32.5 65C50.4493 65 65 50.4493 65 32.5C65 14.5507 50.4493 0 32.5 0C14.5507 0 0 14.5507 0 32.5C0 50.4493 14.5507 65 32.5 65Z" id="Mask" fill="#FF5B70" stroke="none" />
    </g>
  </g>
</svg>