<?xml version="1.0" encoding="utf-8"?>
<svg width="114px" height="114px" viewBox="0 0 114 114" version="1.1" xmlns:xlink="http://www.w3.org/1999/xlink" xmlns="http://www.w3.org/2000/svg">
  <desc>Created with Lunacy</desc>
  <g id="Group-4" transform="translate(0.5 0.5)">
    <path d="M31.999 0L81.001 0Q81.7865 0 82.5711 0.0385442Q83.3557 0.0770884 84.1374 0.154084Q84.9192 0.231079 85.6962 0.346341Q86.4733 0.461602 87.2437 0.614852Q88.0141 0.768101 88.7761 0.95897Q89.5381 1.14984 90.2898 1.37787Q91.0415 1.60589 91.7811 1.87053Q92.5207 2.13517 93.2465 2.43578Q93.9722 2.73639 94.6823 3.07225Q95.3924 3.4081 96.0852 3.7784Q96.778 4.1487 97.4518 4.55254Q98.1255 4.95639 98.7787 5.3928Q99.4318 5.82922 100.063 6.29716Q100.694 6.7651 101.301 7.26344Q101.908 7.76177 102.49 8.2893Q103.072 8.81684 103.628 9.37229Q104.183 9.92774 104.711 10.5098Q105.238 11.0918 105.737 11.699Q106.235 12.3063 106.703 12.9372Q107.171 13.5682 107.607 14.2213Q108.044 14.8745 108.447 15.5482Q108.851 16.222 109.222 16.9148Q109.592 17.6076 109.928 18.3177Q110.264 19.0278 110.564 19.7535Q110.865 20.4792 111.129 21.2189Q111.394 21.9585 111.622 22.7102Q111.85 23.4619 112.041 24.2239Q112.232 24.9859 112.385 25.7563Q112.538 26.5267 112.654 27.3038Q112.769 28.0808 112.846 28.8626Q112.923 29.6443 112.961 30.4289Q113 31.2135 113 31.999L113 81.001Q113 81.7865 112.961 82.5711Q112.923 83.3557 112.846 84.1374Q112.769 84.9192 112.654 85.6962Q112.538 86.4733 112.385 87.2437Q112.232 88.0141 112.041 88.7761Q111.85 89.5381 111.622 90.2898Q111.394 91.0415 111.129 91.7811Q110.865 92.5207 110.564 93.2465Q110.264 93.9722 109.928 94.6823Q109.592 95.3924 109.222 96.0852Q108.851 96.778 108.447 97.4518Q108.044 98.1255 107.607 98.7787Q107.171 99.4318 106.703 100.063Q106.235 100.694 105.737 101.301Q105.238 101.908 104.711 102.49Q104.183 103.072 103.628 103.628Q103.072 104.183 102.49 104.711Q101.908 105.238 101.301 105.737Q100.694 106.235 100.063 106.703Q99.4318 107.171 98.7787 107.607Q98.1255 108.044 97.4518 108.447Q96.778 108.851 96.0852 109.222Q95.3924 109.592 94.6823 109.928Q93.9722 110.264 93.2465 110.564Q92.5207 110.865 91.7811 111.129Q91.0415 111.394 90.2898 111.622Q89.5381 111.85 88.7761 112.041Q88.0141 112.232 87.2437 112.385Q86.4733 112.538 85.6962 112.654Q84.9192 112.769 84.1375 112.846Q83.3557 112.923 82.5711 112.961Q81.7865 113 81.001 113L31.999 113Q31.2135 113 30.4289 112.961Q29.6443 112.923 28.8625 112.846Q28.0808 112.769 27.3038 112.654Q26.5267 112.538 25.7563 112.385Q24.9859 112.232 24.2239 112.041Q23.4619 111.85 22.7102 111.622Q21.9585 111.394 21.2189 111.129Q20.4792 110.865 19.7535 110.564Q19.0278 110.264 18.3177 109.928Q17.6076 109.592 16.9148 109.222Q16.222 108.851 15.5482 108.447Q14.8745 108.044 14.2213 107.607Q13.5682 107.171 12.9372 106.703Q12.3063 106.235 11.699 105.737Q11.0918 105.238 10.5098 104.711Q9.92774 104.183 9.37229 103.628Q8.81684 103.072 8.2893 102.49Q7.76177 101.908 7.26344 101.301Q6.7651 100.694 6.29716 100.063Q5.82922 99.4318 5.3928 98.7787Q4.95639 98.1255 4.55254 97.4518Q4.1487 96.778 3.7784 96.0852Q3.4081 95.3924 3.07225 94.6823Q2.73639 93.9722 2.43578 93.2465Q2.13517 92.5207 1.87053 91.7811Q1.60589 91.0415 1.37787 90.2898Q1.14984 89.5381 0.95897 88.7761Q0.768101 88.0141 0.614852 87.2437Q0.461602 86.4733 0.346341 85.6962Q0.231079 84.9192 0.154084 84.1375Q0.0770884 83.3557 0.0385442 82.5711Q0 81.7865 0 81.001L0 31.999Q0 31.2135 0.0385442 30.4289Q0.0770884 29.6443 0.154084 28.8625Q0.231079 28.0808 0.346341 27.3038Q0.461602 26.5267 0.614852 25.7563Q0.768101 24.9859 0.95897 24.2239Q1.14984 23.4619 1.37787 22.7102Q1.60589 21.9585 1.87053 21.2189Q2.13517 20.4792 2.43578 19.7535Q2.73639 19.0278 3.07225 18.3177Q3.4081 17.6076 3.7784 16.9148Q4.1487 16.222 4.55254 15.5482Q4.95639 14.8745 5.3928 14.2213Q5.82922 13.5682 6.29716 12.9372Q6.7651 12.3063 7.26344 11.699Q7.76177 11.0918 8.2893 10.5098Q8.81684 9.92774 9.37229 9.37229Q9.92774 8.81684 10.5098 8.2893Q11.0918 7.76177 11.699 7.26344Q12.3063 6.7651 12.9372 6.29716Q13.5682 5.82922 14.2213 5.3928Q14.8745 4.95639 15.5482 4.55254Q16.222 4.1487 16.9148 3.7784Q17.6076 3.4081 18.3177 3.07225Q19.0278 2.73639 19.7535 2.43578Q20.4792 2.13517 21.2189 1.87053Q21.9585 1.60589 22.7102 1.37787Q23.4619 1.14984 24.2239 0.95897Q24.9859 0.768101 25.7563 0.614852Q26.5267 0.461602 27.3038 0.346341Q28.0808 0.231079 28.8626 0.154084Q29.6443 0.0770884 30.4289 0.0385442Q31.2135 0 31.999 0Z" id="Rectangle" fill="#FFE9F3" stroke="none" />
    <path d="M33 66C51.2254 66 66 51.2254 66 33C66 14.7746 51.2254 0 33 0C14.7746 0 0 14.7746 0 33C0 51.2254 14.7746 66 33 66Z" transform="translate(24 24)" id="Oval" fill="#FFFFFF" stroke="none" />
  </g>
</svg>