<?xml version="1.0" encoding="utf-8"?>
<svg width="114px" height="114px" viewBox="0 0 114 114" version="1.1" xmlns:xlink="http://www.w3.org/1999/xlink" xmlns="http://www.w3.org/2000/svg">
  <desc>Created with Lunacy</desc>
  <g id="Group-4" transform="translate(0.5 0.5)">
    <path d="M31.999 0L81.001 0Q81.7865 0 82.5711 0.0385442Q83.3557 0.0770884 84.1374 0.154084Q84.9192 0.231079 85.6962 0.346341Q86.4733 0.461602 87.2437 0.614852Q88.0141 0.768101 88.7761 0.95897Q89.5381 1.14984 90.2898 1.37787Q91.0415 1.60589 91.7811 1.87053Q92.5207 2.13517 93.2465 2.43578Q93.9722 2.73639 94.6823 3.07225Q95.3924 3.4081 96.0852 3.7784Q96.778 4.1487 97.4518 4.55254Q98.1255 4.95639 98.7787 5.3928Q99.4318 5.82922 100.063 6.29716Q100.694 6.7651 101.301 7.26344Q101.908 7.76177 102.49 8.2893Q103.072 8.81684 103.628 9.37229Q104.183 9.92774 104.711 10.5098Q105.238 11.0918 105.737 11.699Q106.235 12.3063 106.703 12.9372Q107.171 13.5682 107.607 14.2213Q108.044 14.8745 108.447 15.5482Q108.851 16.222 109.222 16.9148Q109.592 17.6076 109.928 18.3177Q110.264 19.0278 110.564 19.7535Q110.865 20.4792 111.129 21.2189Q111.394 21.9585 111.622 22.7102Q111.85 23.4619 112.041 24.2239Q112.232 24.9859 112.385 25.7563Q112.538 26.5267 112.654 27.3038Q112.769 28.0808 112.846 28.8626Q112.923 29.6443 112.961 30.4289Q113 31.2135 113 31.999L113 81.001Q113 81.7865 112.961 82.5711Q112.923 83.3557 112.846 84.1374Q112.769 84.9192 112.654 85.6962Q112.538 86.4733 112.385 87.2437Q112.232 88.0141 112.041 88.7761Q111.85 89.5381 111.622 90.2898Q111.394 91.0415 111.129 91.7811Q110.865 92.5207 110.564 93.2465Q110.264 93.9722 109.928 94.6823Q109.592 95.3924 109.222 96.0852Q108.851 96.778 108.447 97.4518Q108.044 98.1255 107.607 98.7787Q107.171 99.4318 106.703 100.063Q106.235 100.694 105.737 101.301Q105.238 101.908 104.711 102.49Q104.183 103.072 103.628 103.628Q103.072 104.183 102.49 104.711Q101.908 105.238 101.301 105.737Q100.694 106.235 100.063 106.703Q99.4318 107.171 98.7787 107.607Q98.1255 108.044 97.4518 108.447Q96.778 108.851 96.0852 109.222Q95.3924 109.592 94.6823 109.928Q93.9722 110.264 93.2465 110.564Q92.5207 110.865 91.7811 111.129Q91.0415 111.394 90.2898 111.622Q89.5381 111.85 88.7761 112.041Q88.0141 112.232 87.2437 112.385Q86.4733 112.538 85.6962 112.654Q84.9192 112.769 84.1375 112.846Q83.3557 112.923 82.5711 112.961Q81.7865 113 81.001 113L31.999 113Q31.2135 113 30.4289 112.961Q29.6443 112.923 28.8625 112.846Q28.0808 112.769 27.3038 112.654Q26.5267 112.538 25.7563 112.385Q24.9859 112.232 24.2239 112.041Q23.4619 111.85 22.7102 111.622Q21.9585 111.394 21.2189 111.129Q20.4792 110.865 19.7535 110.564Q19.0278 110.264 18.3177 109.928Q17.6076 109.592 16.9148 109.222Q16.222 108.851 15.5482 108.447Q14.8745 108.044 14.2213 107.607Q13.5682 107.171 12.9372 106.703Q12.3063 106.235 11.699 105.737Q11.0918 105.238 10.5098 104.711Q9.92774 104.183 9.37229 103.628Q8.81684 103.072 8.2893 102.49Q7.76177 101.908 7.26344 101.301Q6.7651 100.694 6.29716 100.063Q5.82922 99.4318 5.3928 98.7787Q4.95639 98.1255 4.55254 97.4518Q4.1487 96.778 3.7784 96.0852Q3.4081 95.3924 3.07225 94.6823Q2.73639 93.9722 2.43578 93.2465Q2.13517 92.5207 1.87053 91.7811Q1.60589 91.0415 1.37787 90.2898Q1.14984 89.5381 0.95897 88.7761Q0.768101 88.0141 0.614852 87.2437Q0.461602 86.4733 0.346341 85.6962Q0.231079 84.9192 0.154084 84.1375Q0.0770884 83.3557 0.0385442 82.5711Q0 81.7865 0 81.001L0 31.999Q0 31.2135 0.0385442 30.4289Q0.0770884 29.6443 0.154084 28.8625Q0.231079 28.0808 0.346341 27.3038Q0.461602 26.5267 0.614852 25.7563Q0.768101 24.9859 0.95897 24.2239Q1.14984 23.4619 1.37787 22.7102Q1.60589 21.9585 1.87053 21.2189Q2.13517 20.4792 2.43578 19.7535Q2.73639 19.0278 3.07225 18.3177Q3.4081 17.6076 3.7784 16.9148Q4.1487 16.222 4.55254 15.5482Q4.95639 14.8745 5.3928 14.2213Q5.82922 13.5682 6.29716 12.9372Q6.7651 12.3063 7.26344 11.699Q7.76177 11.0918 8.2893 10.5098Q8.81684 9.92774 9.37229 9.37229Q9.92774 8.81684 10.5098 8.2893Q11.0918 7.76177 11.699 7.26344Q12.3063 6.7651 12.9372 6.29716Q13.5682 5.82922 14.2213 5.3928Q14.8745 4.95639 15.5482 4.55254Q16.222 4.1487 16.9148 3.7784Q17.6076 3.4081 18.3177 3.07225Q19.0278 2.73639 19.7535 2.43578Q20.4792 2.13517 21.2189 1.87053Q21.9585 1.60589 22.7102 1.37787Q23.4619 1.14984 24.2239 0.95897Q24.9859 0.768101 25.7563 0.614852Q26.5267 0.461602 27.3038 0.346341Q28.0808 0.231079 28.8626 0.154084Q29.6443 0.0770884 30.4289 0.0385442Q31.2135 0 31.999 0Z" id="Rectangle" fill="#E9F3FF" stroke="none" />
    <path d="M9.999 0L45.001 0Q45.2465 0 45.4916 0.0120442Q45.7368 0.0240885 45.9811 0.0481479Q46.2253 0.0722074 46.4682 0.108224Q46.711 0.144241 46.9517 0.192128Q47.1924 0.240015 47.4306 0.299657Q47.6687 0.3593 47.9036 0.430554Q48.1384 0.501807 48.3696 0.584501Q48.6007 0.667194 48.8274 0.761128Q49.0542 0.855063 49.2761 0.960011Q49.498 1.06496 49.7145 1.18067Q49.931 1.29638 50.1415 1.42257Q50.352 1.54876 50.5561 1.68514Q50.7602 1.82151 50.9574 1.96773Q51.1545 2.11395 51.3443 2.26967Q51.534 2.42539 51.7159 2.59023Q51.8978 2.75507 52.0714 2.92864Q52.2449 3.10221 52.4098 3.28408Q52.5746 3.46596 52.7303 3.6557Q52.886 3.84545 53.0323 4.0426Q53.1785 4.23976 53.3149 4.44385Q53.4512 4.64795 53.5774 4.85849Q53.7036 5.06903 53.8193 5.2855Q53.935 5.50198 54.04 5.72388Q54.1449 5.94577 54.2389 6.17255Q54.3328 6.39933 54.4155 6.63044Q54.4982 6.86155 54.5694 7.09644Q54.6407 7.33134 54.7003 7.56944Q54.76 7.80755 54.8079 8.04829Q54.8558 8.28904 54.8918 8.53184Q54.9278 8.77465 54.9519 9.01893Q54.9759 9.26321 54.988 9.50837Q55 9.75354 55 9.999L55 45.001Q55 45.2465 54.9879 45.4916Q54.9759 45.7368 54.9519 45.9811Q54.9278 46.2253 54.8918 46.4682Q54.8558 46.711 54.8079 46.9517Q54.76 47.1924 54.7003 47.4306Q54.6407 47.6687 54.5694 47.9036Q54.4982 48.1384 54.4155 48.3696Q54.3328 48.6007 54.2389 48.8274Q54.1449 49.0542 54.04 49.2761Q53.935 49.498 53.8193 49.7145Q53.7036 49.931 53.5774 50.1415Q53.4512 50.352 53.3149 50.5561Q53.1785 50.7602 53.0323 50.9574Q52.886 51.1545 52.7303 51.3443Q52.5746 51.534 52.4098 51.7159Q52.2449 51.8978 52.0714 52.0714Q51.8978 52.2449 51.7159 52.4098Q51.534 52.5746 51.3443 52.7303Q51.1546 52.886 50.9574 53.0323Q50.7602 53.1785 50.5561 53.3149Q50.352 53.4512 50.1415 53.5774Q49.931 53.7036 49.7145 53.8193Q49.498 53.935 49.2761 54.04Q49.0542 54.1449 48.8274 54.2389Q48.6007 54.3328 48.3696 54.4155Q48.1385 54.4982 47.9036 54.5694Q47.6687 54.6407 47.4306 54.7003Q47.1924 54.76 46.9517 54.8079Q46.711 54.8558 46.4682 54.8918Q46.2254 54.9278 45.9811 54.9519Q45.7368 54.9759 45.4916 54.988Q45.2465 55 45.001 55L9.999 55Q9.75354 55 9.50837 54.9879Q9.26321 54.9759 9.01893 54.9519Q8.77465 54.9278 8.53184 54.8918Q8.28904 54.8558 8.04829 54.8079Q7.80755 54.76 7.56944 54.7003Q7.33134 54.6407 7.09644 54.5694Q6.86155 54.4982 6.63044 54.4155Q6.39932 54.3328 6.17255 54.2389Q5.94577 54.1449 5.72388 54.04Q5.50198 53.935 5.2855 53.8193Q5.06903 53.7036 4.85849 53.5774Q4.64795 53.4512 4.44385 53.3149Q4.23976 53.1785 4.0426 53.0323Q3.84545 52.886 3.6557 52.7303Q3.46596 52.5746 3.28408 52.4098Q3.10221 52.2449 2.92864 52.0714Q2.75507 51.8978 2.59023 51.7159Q2.42539 51.534 2.26967 51.3443Q2.11395 51.1546 1.96773 50.9574Q1.82151 50.7602 1.68514 50.5561Q1.54876 50.352 1.42257 50.1415Q1.29638 49.931 1.18067 49.7145Q1.06496 49.498 0.960011 49.2761Q0.855063 49.0542 0.761128 48.8274Q0.667194 48.6007 0.584501 48.3696Q0.501807 48.1385 0.430554 47.9036Q0.3593 47.6687 0.299657 47.4306Q0.240015 47.1924 0.192128 46.9517Q0.144241 46.711 0.108224 46.4682Q0.0722074 46.2254 0.0481479 45.9811Q0.0240885 45.7368 0.0120442 45.4916Q0 45.2465 0 45.001L0 9.999Q0 9.75354 0.0120442 9.50837Q0.0240885 9.26321 0.0481479 9.01893Q0.0722074 8.77465 0.108224 8.53184Q0.144241 8.28904 0.192128 8.04829Q0.240015 7.80755 0.299657 7.56944Q0.3593 7.33134 0.430554 7.09644Q0.501807 6.86155 0.584501 6.63044Q0.667194 6.39932 0.761128 6.17255Q0.855063 5.94577 0.960011 5.72388Q1.06496 5.50198 1.18067 5.2855Q1.29638 5.06903 1.42257 4.85849Q1.54876 4.64795 1.68514 4.44385Q1.82151 4.23976 1.96773 4.0426Q2.11395 3.84545 2.26967 3.6557Q2.42539 3.46596 2.59023 3.28408Q2.75507 3.10221 2.92864 2.92864Q3.10221 2.75507 3.28408 2.59023Q3.46596 2.42539 3.6557 2.26967Q3.84545 2.11395 4.0426 1.96773Q4.23976 1.82151 4.44385 1.68514Q4.64795 1.54876 4.85849 1.42257Q5.06903 1.29638 5.2855 1.18067Q5.50198 1.06496 5.72388 0.960011Q5.94577 0.855063 6.17255 0.761128Q6.39933 0.667194 6.63044 0.584501Q6.86155 0.501807 7.09644 0.430554Q7.33134 0.3593 7.56944 0.299657Q7.80755 0.240015 8.04829 0.192128Q8.28904 0.144241 8.53184 0.108224Q8.77465 0.0722074 9.01893 0.0481479Q9.26321 0.0240885 9.50837 0.0120442Q9.75354 0 9.999 0Z" transform="translate(29 29)" id="Rectangle" fill="#008DF5" stroke="none" />
  </g>
</svg>