<svg width="71px" height="71px" viewBox="0 0 71 71" version="1.1" xmlns:xlink="http://www.w3.org/1999/xlink" xmlns="http://www.w3.org/2000/svg">
  <desc>Created with Lunacy</desc>
  <g id="Group-2" transform="translate(1.25 1.25)">
    <path d="M34 68C52.7777 68 68 52.7777 68 34C68 15.2223 52.7777 0 34 0C15.2223 0 0 15.2223 0 34C0 52.7777 15.2223 68 34 68Z" id="Oval" fill="#FFBC00" stroke="none" />
    <g id="Group" transform="translate(14 14)">
      <path d="M0 0L40 0L40 40L0 40L0 0Z" id="Path" fill="none" stroke="none" />
      <path d="M6.66667 0L0 6.66667L6.66667 13.3333" transform="translate(5 13.33325)" id="Path" fill="none" stroke="#FFFFFF" stroke-width="2.5" stroke-linecap="round" stroke-linejoin="round" />
      <path d="M0 0L6.66667 6.66667L0 13.3333" transform="translate(28.33337 13.33325)" id="Path" fill="none" stroke="#FFFFFF" stroke-width="2.5" stroke-linecap="round" stroke-linejoin="round" />
      <path d="M6.66667 0L0 26.6667" transform="translate(16.66663 6.666748)" id="Path" fill="none" stroke="#FFFFFF" stroke-width="2.5" stroke-linecap="round" stroke-linejoin="round" />
    </g>
  </g>
</svg>