<svg width="71px" height="71px" viewBox="0 0 71 71" version="1.1" xmlns:xlink="http://www.w3.org/1999/xlink" xmlns="http://www.w3.org/2000/svg">
  <desc>Created with Lunacy</desc>
  <g id="Group-2" transform="translate(1.25 1.25)">
    <path d="M34 68C52.7777 68 68 52.7777 68 34C68 15.2223 52.7777 0 34 0C15.2223 0 0 15.2223 0 34C0 52.7777 15.2223 68 34 68Z" id="Oval" fill="#FFBC00" stroke="none" />
    <g id="Group" transform="translate(14 14)">
      <path d="M0 0L40 0L40 40L0 40L0 0Z" id="Path" fill="none" stroke="none" />
      <path d="M3.33233 0L6.66767 0Q6.83137 0 6.99429 0.0160461Q7.15721 0.0320922 7.31777 0.0640298Q7.47833 0.0959675 7.63499 0.143489Q7.79165 0.191011 7.94289 0.253659Q8.09414 0.316307 8.23852 0.393478Q8.38289 0.470649 8.51901 0.561599Q8.65513 0.65255 8.78168 0.756405Q8.90822 0.860259 9.02398 0.976018Q9.13974 1.09178 9.2436 1.21832Q9.34745 1.34487 9.4384 1.48099Q9.52935 1.61711 9.60652 1.76148Q9.68369 1.90586 9.74634 2.0571Q9.80899 2.20835 9.85651 2.36501Q9.90403 2.52167 9.93597 2.68223Q9.96791 2.84279 9.98395 3.00571Q10 3.16863 10 3.33233L10 5.001Q10 5.16471 9.98395 5.32763Q9.96791 5.49054 9.93597 5.65111Q9.90403 5.81167 9.85651 5.96832Q9.80899 6.12498 9.74634 6.27623Q9.68369 6.42747 9.60652 6.57185Q9.52935 6.71623 9.4384 6.85234Q9.34745 6.98846 9.2436 7.11501Q9.13974 7.24156 9.02398 7.35732Q8.90822 7.47307 8.78168 7.57693Q8.65513 7.68078 8.51901 7.77173Q8.38289 7.86268 8.23852 7.93986Q8.09414 8.01703 7.94289 8.07967Q7.79165 8.14232 7.63499 8.18985Q7.47833 8.23737 7.31777 8.2693Q7.15721 8.30124 6.99429 8.31729Q6.83137 8.33333 6.66767 8.33333L3.33233 8.33333Q3.16863 8.33333 3.00571 8.31729Q2.84279 8.30124 2.68223 8.2693Q2.52167 8.23737 2.36501 8.18984Q2.20835 8.14232 2.0571 8.07967Q1.90586 8.01703 1.76148 7.93986Q1.61711 7.86268 1.48099 7.77173Q1.34487 7.68078 1.21832 7.57693Q1.09178 7.47307 0.976018 7.35732Q0.860259 7.24156 0.756405 7.11501Q0.65255 6.98846 0.561599 6.85234Q0.470649 6.71623 0.393478 6.57185Q0.316307 6.42747 0.253659 6.27623Q0.191011 6.12498 0.143489 5.96832Q0.0959675 5.81167 0.0640298 5.65111Q0.0320922 5.49054 0.0160461 5.32763Q0 5.16471 0 5.001L0 3.33233Q0 3.16863 0.0160461 3.00571Q0.0320922 2.84279 0.0640298 2.68223Q0.0959675 2.52167 0.143489 2.36501Q0.191011 2.20835 0.253659 2.0571Q0.316307 1.90586 0.393478 1.76148Q0.470649 1.61711 0.561599 1.48099Q0.65255 1.34487 0.756405 1.21832Q0.860259 1.09178 0.976018 0.976018Q1.09178 0.860259 1.21832 0.756405Q1.34487 0.65255 1.48099 0.561599Q1.61711 0.470649 1.76148 0.393478Q1.90586 0.316307 2.0571 0.253659Q2.20835 0.191011 2.36501 0.143489Q2.52167 0.0959675 2.68223 0.0640298Q2.84279 0.0320922 3.00571 0.0160461Q3.16863 0 3.33233 0Z" transform="translate(6.666687 6.666504)" id="Rectangle" fill="none" stroke="#FFFFFF" stroke-width="2.5" stroke-linecap="round" stroke-linejoin="round" />
      <path d="M3.33233 0L6.66767 0Q6.83137 0 6.99429 0.0160461Q7.15721 0.0320922 7.31777 0.0640298Q7.47833 0.0959675 7.63499 0.143489Q7.79165 0.191011 7.94289 0.253659Q8.09414 0.316307 8.23852 0.393478Q8.38289 0.470649 8.51901 0.561599Q8.65513 0.65255 8.78168 0.756405Q8.90822 0.860259 9.02398 0.976018Q9.13974 1.09178 9.2436 1.21832Q9.34745 1.34487 9.4384 1.48099Q9.52935 1.61711 9.60652 1.76148Q9.68369 1.90586 9.74634 2.0571Q9.80899 2.20835 9.85651 2.36501Q9.90403 2.52167 9.93597 2.68223Q9.96791 2.84279 9.98395 3.00571Q10 3.16863 10 3.33233L10 8.33433Q10 8.49804 9.98395 8.66096Q9.96791 8.82388 9.93597 8.98444Q9.90403 9.145 9.85651 9.30166Q9.80899 9.45832 9.74634 9.60956Q9.68369 9.76081 9.60652 9.90518Q9.52935 10.0496 9.4384 10.1857Q9.34745 10.3218 9.2436 10.4483Q9.13974 10.5749 9.02398 10.6906Q8.90822 10.8064 8.78168 10.9103Q8.65513 11.0141 8.51901 11.1051Q8.38289 11.196 8.23852 11.2732Q8.09414 11.3504 7.94289 11.413Q7.79165 11.4757 7.63499 11.5232Q7.47833 11.5707 7.31777 11.6026Q7.15721 11.6346 6.99429 11.6506Q6.83137 11.6667 6.66767 11.6667L3.33233 11.6667Q3.16863 11.6667 3.00571 11.6506Q2.84279 11.6346 2.68223 11.6026Q2.52167 11.5707 2.36501 11.5232Q2.20835 11.4757 2.0571 11.413Q1.90586 11.3504 1.76148 11.2732Q1.61711 11.196 1.48099 11.1051Q1.34487 11.0141 1.21832 10.9103Q1.09178 10.8064 0.976018 10.6906Q0.860259 10.5749 0.756405 10.4483Q0.65255 10.3218 0.561599 10.1857Q0.470649 10.0496 0.393478 9.90518Q0.316307 9.76081 0.253659 9.60956Q0.191011 9.45832 0.143489 9.30166Q0.0959675 9.145 0.0640298 8.98444Q0.0320922 8.82388 0.0160461 8.66096Q0 8.49804 0 8.33433L0 3.33233Q0 3.16863 0.0160461 3.00571Q0.0320922 2.84279 0.0640298 2.68223Q0.0959675 2.52167 0.143489 2.36501Q0.191011 2.20835 0.253659 2.0571Q0.316307 1.90586 0.393478 1.76148Q0.470649 1.61711 0.561599 1.48099Q0.65255 1.34487 0.756405 1.21832Q0.860259 1.09178 0.976018 0.976018Q1.09178 0.860259 1.21832 0.756405Q1.34487 0.65255 1.48099 0.561599Q1.61711 0.470649 1.76148 0.393478Q1.90586 0.316307 2.0571 0.253659Q2.20835 0.191011 2.36501 0.143489Q2.52167 0.0959675 2.68223 0.0640298Q2.84279 0.0320922 3.00571 0.0160461Q3.16863 0 3.33233 0Z" transform="translate(6.666687 21.6665)" id="Rectangle" fill="none" stroke="#FFFFFF" stroke-width="2.5" stroke-linecap="round" stroke-linejoin="round" />
      <path d="M3.33233 0L6.66767 0Q6.83138 0 6.99429 0.0160461Q7.15721 0.0320922 7.31777 0.0640299Q7.47834 0.0959675 7.63499 0.143489Q7.79165 0.191011 7.9429 0.253659Q8.09414 0.316307 8.23852 0.393478Q8.3829 0.470649 8.51901 0.561599Q8.65513 0.65255 8.78168 0.756405Q8.90823 0.86026 9.02398 0.976018Q9.13974 1.09178 9.2436 1.21832Q9.34745 1.34487 9.4384 1.48099Q9.52935 1.61711 9.60652 1.76148Q9.68369 1.90586 9.74634 2.0571Q9.80899 2.20835 9.85651 2.36501Q9.90403 2.52167 9.93597 2.68223Q9.96791 2.84279 9.98396 3.00571Q10 3.16863 10 3.33233L10 8.33433Q10 8.49804 9.98396 8.66096Q9.96791 8.82388 9.93597 8.98444Q9.90403 9.145 9.85651 9.30166Q9.80899 9.45832 9.74634 9.60956Q9.68369 9.76081 9.60652 9.90518Q9.52935 10.0496 9.4384 10.1857Q9.34745 10.3218 9.2436 10.4483Q9.13974 10.5749 9.02398 10.6906Q8.90823 10.8064 8.78168 10.9103Q8.65513 11.0141 8.51901 11.1051Q8.3829 11.196 8.23852 11.2732Q8.09414 11.3504 7.9429 11.413Q7.79165 11.4757 7.63499 11.5232Q7.47833 11.5707 7.31777 11.6026Q7.15721 11.6346 6.99429 11.6506Q6.83138 11.6667 6.66767 11.6667L3.33233 11.6667Q3.16863 11.6667 3.00571 11.6506Q2.84279 11.6346 2.68223 11.6026Q2.52167 11.5707 2.36501 11.5232Q2.20835 11.4757 2.0571 11.413Q1.90586 11.3504 1.76148 11.2732Q1.61711 11.196 1.48099 11.1051Q1.34487 11.0141 1.21832 10.9103Q1.09178 10.8064 0.976018 10.6906Q0.86026 10.5749 0.756405 10.4483Q0.65255 10.3218 0.561599 10.1857Q0.470649 10.0496 0.393478 9.90518Q0.316307 9.76081 0.253659 9.60956Q0.191011 9.45832 0.143489 9.30166Q0.0959675 9.145 0.0640298 8.98444Q0.0320922 8.82388 0.0160461 8.66096Q0 8.49804 0 8.33433L0 3.33233Q0 3.16863 0.0160461 3.00571Q0.0320922 2.84279 0.0640298 2.68223Q0.0959675 2.52167 0.143489 2.36501Q0.191011 2.20835 0.253659 2.0571Q0.316307 1.90586 0.393478 1.76148Q0.470649 1.61711 0.561599 1.48099Q0.65255 1.34487 0.756405 1.21832Q0.860259 1.09178 0.976018 0.976018Q1.09178 0.860259 1.21832 0.756405Q1.34487 0.65255 1.48099 0.561599Q1.61711 0.470649 1.76148 0.393478Q1.90586 0.316307 2.0571 0.253659Q2.20835 0.191011 2.36501 0.143489Q2.52167 0.0959675 2.68223 0.0640298Q2.84279 0.0320922 3.00571 0.0160461Q3.16863 0 3.33233 0L3.33233 0Z" transform="translate(23.33331 6.666504)" id="Rectangle" fill="none" stroke="#FFFFFF" stroke-width="2.5" stroke-linecap="round" stroke-linejoin="round" />
      <path d="M3.33233 0L6.66767 0Q6.83138 0 6.99429 0.0160461Q7.15721 0.0320922 7.31777 0.0640298Q7.47834 0.0959675 7.63499 0.143489Q7.79165 0.191011 7.9429 0.253659Q8.09414 0.316307 8.23852 0.393478Q8.3829 0.470649 8.51901 0.561599Q8.65513 0.65255 8.78168 0.756405Q8.90823 0.86026 9.02398 0.976018Q9.13974 1.09178 9.2436 1.21832Q9.34745 1.34487 9.4384 1.48099Q9.52935 1.61711 9.60652 1.76148Q9.68369 1.90586 9.74634 2.0571Q9.80899 2.20835 9.85651 2.36501Q9.90403 2.52167 9.93597 2.68223Q9.96791 2.84279 9.98396 3.00571Q10 3.16863 10 3.33233L10 5.001Q10 5.16471 9.98396 5.32762Q9.96791 5.49054 9.93597 5.6511Q9.90403 5.81167 9.85651 5.96832Q9.80899 6.12498 9.74634 6.27623Q9.68369 6.42747 9.60652 6.57185Q9.52935 6.71623 9.4384 6.85234Q9.34745 6.98846 9.2436 7.11501Q9.13974 7.24156 9.02398 7.35731Q8.90823 7.47307 8.78168 7.57693Q8.65513 7.68078 8.51901 7.77173Q8.3829 7.86268 8.23852 7.93985Q8.09414 8.01702 7.9429 8.07967Q7.79165 8.14232 7.63499 8.18984Q7.47833 8.23736 7.31777 8.2693Q7.15721 8.30124 6.99429 8.31729Q6.83138 8.33333 6.66767 8.33333L3.33233 8.33333Q3.16863 8.33333 3.00571 8.31729Q2.84279 8.30124 2.68223 8.2693Q2.52167 8.23736 2.36501 8.18984Q2.20835 8.14232 2.0571 8.07967Q1.90586 8.01702 1.76148 7.93985Q1.61711 7.86268 1.48099 7.77173Q1.34487 7.68078 1.21832 7.57693Q1.09178 7.47307 0.976018 7.35731Q0.860259 7.24156 0.756405 7.11501Q0.65255 6.98846 0.561599 6.85234Q0.470649 6.71623 0.393478 6.57185Q0.316307 6.42747 0.253659 6.27623Q0.191011 6.12498 0.143489 5.96832Q0.0959675 5.81167 0.0640298 5.6511Q0.0320922 5.49054 0.0160461 5.32762Q0 5.16471 0 5.001L0 3.33233Q0 3.16863 0.0160461 3.00571Q0.0320922 2.84279 0.0640298 2.68223Q0.0959675 2.52167 0.143489 2.36501Q0.191011 2.20835 0.253659 2.0571Q0.316307 1.90586 0.393478 1.76148Q0.470649 1.61711 0.561599 1.48099Q0.65255 1.34487 0.756405 1.21832Q0.860259 1.09178 0.976018 0.976018Q1.09178 0.860259 1.21832 0.756405Q1.34487 0.65255 1.48099 0.561599Q1.61711 0.470649 1.76148 0.393478Q1.90586 0.316307 2.0571 0.253659Q2.20835 0.191011 2.36501 0.143489Q2.52167 0.0959675 2.68223 0.0640298Q2.84279 0.0320922 3.00571 0.0160461Q3.16863 0 3.33233 0L3.33233 0Z" transform="translate(23.33331 25)" id="Rectangle" fill="none" stroke="#FFFFFF" stroke-width="2.5" stroke-linecap="round" stroke-linejoin="round" />
    </g>
  </g>
</svg>