<?xml version="1.0" encoding="utf-8"?>
<svg width="71px" height="71px" viewBox="0 0 71 71" version="1.1" xmlns:xlink="http://www.w3.org/1999/xlink" xmlns="http://www.w3.org/2000/svg">
  <desc>Created with Lunacy</desc>
  <g id="Group-2" transform="translate(1.25 1.25)">
    <path d="M34 68C52.7777 68 68 52.7777 68 34C68 15.2223 52.7777 0 34 0C15.2223 0 0 15.2223 0 34C0 52.7777 15.2223 68 34 68Z" id="Oval" fill="#FFBC00" stroke="none" />
    <g id="Group" transform="translate(14 14)">
      <path d="M0 0L40 0L40 40L0 40L0 0Z" id="Path" fill="none" stroke="none" />
      <path d="M0.825 0.833333L0.841666 0.833333" transform="translate(24.175 12.5)" id="Path" fill="none" stroke="#FFFFFF" stroke-width="2.5" stroke-linecap="round" stroke-linejoin="round" />
      <path d="M4.999 0L21.6677 0Q21.7904 0 21.913 0.00602151Q22.0355 0.012043 22.1577 0.0240715Q22.2798 0.0361001 22.4012 0.0541066Q22.5226 0.0721132 22.6429 0.0960544Q22.7633 0.119996 22.8823 0.149814Q23.0014 0.179632 23.1188 0.215255Q23.2362 0.250879 23.3518 0.292221Q23.4673 0.333564 23.5807 0.380526Q23.6941 0.427489 23.805 0.479957Q23.9159 0.532426 24.0242 0.590276Q24.1324 0.648125 24.2377 0.711215Q24.3429 0.774305 24.445 0.842483Q24.547 0.910662 24.6456 0.983765Q24.7441 1.05687 24.839 1.13472Q24.9339 1.21257 25.0248 1.29499Q25.1157 1.3774 25.2025 1.46417Q25.2893 1.55095 25.3717 1.64188Q25.4541 1.73281 25.5319 1.82767Q25.6098 1.92253 25.6829 2.0211Q25.756 2.11967 25.8242 2.2217Q25.8924 2.32374 25.9554 2.429Q26.0185 2.53426 26.0764 2.64249Q26.1342 2.75072 26.1867 2.86165Q26.2392 2.97259 26.2861 3.08597Q26.3331 3.19934 26.3744 3.31489Q26.4158 3.43043 26.4514 3.54787Q26.487 3.6653 26.5168 3.78434Q26.5467 3.90338 26.5706 4.02374Q26.5945 4.1441 26.6126 4.26549Q26.6306 4.38688 26.6426 4.50901Q26.6546 4.63114 26.6606 4.75371Q26.6667 4.87628 26.6667 4.999L26.6667 21.6677Q26.6667 21.7904 26.6606 21.913Q26.6546 22.0355 26.6426 22.1577Q26.6306 22.2798 26.6126 22.4012Q26.5945 22.5226 26.5706 22.6429Q26.5467 22.7633 26.5168 22.8823Q26.487 23.0014 26.4514 23.1188Q26.4158 23.2362 26.3744 23.3518Q26.3331 23.4673 26.2861 23.5807Q26.2392 23.6941 26.1867 23.805Q26.1342 23.9159 26.0764 24.0242Q26.0185 24.1324 25.9554 24.2377Q25.8924 24.3429 25.8242 24.445Q25.756 24.547 25.6829 24.6456Q25.6098 24.7441 25.5319 24.839Q25.4541 24.9339 25.3717 25.0248Q25.2893 25.1157 25.2025 25.2025Q25.1157 25.2893 25.0248 25.3717Q24.9339 25.4541 24.839 25.5319Q24.7441 25.6098 24.6456 25.6829Q24.547 25.756 24.445 25.8242Q24.3429 25.8924 24.2377 25.9554Q24.1324 26.0185 24.0242 26.0764Q23.9159 26.1342 23.805 26.1867Q23.6941 26.2392 23.5807 26.2861Q23.4673 26.3331 23.3518 26.3744Q23.2362 26.4158 23.1188 26.4514Q23.0014 26.487 22.8823 26.5168Q22.7633 26.5467 22.6429 26.5706Q22.5226 26.5945 22.4012 26.6126Q22.2798 26.6306 22.1577 26.6426Q22.0355 26.6546 21.913 26.6606Q21.7904 26.6667 21.6677 26.6667L4.999 26.6667Q4.87628 26.6667 4.75371 26.6606Q4.63114 26.6546 4.50901 26.6426Q4.38688 26.6306 4.26549 26.6126Q4.1441 26.5945 4.02374 26.5706Q3.90338 26.5467 3.78434 26.5168Q3.6653 26.487 3.54787 26.4514Q3.43043 26.4158 3.31489 26.3744Q3.19934 26.3331 3.08597 26.2861Q2.97259 26.2392 2.86165 26.1867Q2.75072 26.1342 2.64249 26.0764Q2.53426 26.0185 2.429 25.9554Q2.32374 25.8924 2.2217 25.8242Q2.11967 25.756 2.0211 25.6829Q1.92253 25.6098 1.82767 25.5319Q1.73281 25.4541 1.64188 25.3717Q1.55095 25.2893 1.46417 25.2025Q1.3774 25.1157 1.29499 25.0248Q1.21257 24.9339 1.13472 24.839Q1.05687 24.7441 0.983765 24.6456Q0.910662 24.547 0.842483 24.445Q0.774305 24.3429 0.711215 24.2377Q0.648125 24.1324 0.590276 24.0242Q0.532426 23.9159 0.479957 23.805Q0.427489 23.6941 0.380526 23.5807Q0.333564 23.4673 0.292221 23.3518Q0.250879 23.2362 0.215255 23.1188Q0.179632 23.0014 0.149814 22.8823Q0.119996 22.7633 0.0960544 22.6429Q0.0721132 22.5226 0.0541066 22.4012Q0.0361001 22.2798 0.0240715 22.1577Q0.012043 22.0355 0.00602151 21.913Q0 21.7904 0 21.6677L0 4.999Q0 4.87628 0.00602151 4.75371Q0.012043 4.63114 0.0240715 4.50901Q0.0361001 4.38688 0.0541066 4.26549Q0.0721132 4.1441 0.0960544 4.02374Q0.119996 3.90338 0.149814 3.78434Q0.179632 3.6653 0.215255 3.54787Q0.250879 3.43043 0.292221 3.31489Q0.333564 3.19934 0.380526 3.08597Q0.427489 2.97259 0.479957 2.86165Q0.532426 2.75072 0.590276 2.64249Q0.648125 2.53426 0.711215 2.429Q0.774305 2.32374 0.842483 2.2217Q0.910662 2.11967 0.983765 2.0211Q1.05687 1.92253 1.13472 1.82767Q1.21257 1.73281 1.29499 1.64188Q1.3774 1.55095 1.46417 1.46417Q1.55095 1.3774 1.64188 1.29499Q1.73281 1.21257 1.82767 1.13472Q1.92253 1.05687 2.0211 0.983765Q2.11967 0.910662 2.2217 0.842483Q2.32374 0.774305 2.429 0.711215Q2.53426 0.648125 2.64249 0.590276Q2.75072 0.532426 2.86165 0.479957Q2.97259 0.427489 3.08597 0.380526Q3.19934 0.333564 3.31489 0.292221Q3.43043 0.250879 3.54787 0.215255Q3.6653 0.179632 3.78434 0.149814Q3.90338 0.119996 4.02374 0.0960544Q4.1441 0.0721132 4.26549 0.0541066Q4.38688 0.0361001 4.50901 0.0240715Q4.63114 0.012043 4.75371 0.00602151Q4.87628 0 4.999 0Z" transform="translate(6.666667 6.666667)" id="Rectangle" fill="none" stroke="#FFFFFF" stroke-width="2.5" stroke-linecap="round" stroke-linejoin="round" />
      <path d="M0 7.78312L6.66667 1.11646C8.21367 -0.372152 10.1197 -0.372152 11.6667 1.11646L20 9.44979" transform="translate(6.666667 17.21688)" id="Path" fill="none" stroke="#FFFFFF" stroke-width="2.5" stroke-linecap="round" stroke-linejoin="round" />
      <path d="M0 2.78312L1.66667 1.11646C3.21367 -0.372152 5.11966 -0.372152 6.66667 1.11646L10 4.44979" transform="translate(23.33333 20.55021)" id="Path" fill="none" stroke="#FFFFFF" stroke-width="2.5" stroke-linecap="round" stroke-linejoin="round" />
    </g>
  </g>
</svg>