<?xml version="1.0" encoding="utf-8"?>
<svg width="71px" height="71px" viewBox="0 0 71 71" version="1.1" xmlns:xlink="http://www.w3.org/1999/xlink" xmlns="http://www.w3.org/2000/svg">
  <desc>Created with Lunacy</desc>
  <g id="Group-2" transform="translate(1.25 1.25)">
    <path d="M34 68C52.7777 68 68 52.7777 68 34C68 15.2223 52.7777 0 34 0C15.2223 0 0 15.2223 0 34C0 52.7777 15.2223 68 34 68Z" id="Oval" fill="#FFBC00" stroke="none" />
    <g id="Group" transform="translate(14 14)">
      <path d="M0 0L40 0L40 40L0 40L0 0Z" id="Path" fill="none" stroke="none" />
      <path d="M3.33233 0L23.3343 0Q23.498 0 23.661 0.0160461Q23.8239 0.0320922 23.9844 0.0640298Q24.145 0.0959675 24.3017 0.143489Q24.4583 0.191011 24.6096 0.253659Q24.7608 0.316307 24.9052 0.393478Q25.0496 0.470649 25.1857 0.561599Q25.3218 0.65255 25.4483 0.756405Q25.5749 0.860259 25.6906 0.976018Q25.8064 1.09178 25.9103 1.21832Q26.0141 1.34487 26.1051 1.48099Q26.196 1.61711 26.2732 1.76148Q26.3504 1.90586 26.413 2.0571Q26.4757 2.20835 26.5232 2.36501Q26.5707 2.52167 26.6026 2.68223Q26.6346 2.84279 26.6506 3.00571Q26.6667 3.16863 26.6667 3.33233L26.6667 6.66767Q26.6667 6.83137 26.6506 6.99429Q26.6346 7.15721 26.6026 7.31777Q26.5707 7.47833 26.5232 7.63499Q26.4757 7.79165 26.413 7.94289Q26.3504 8.09414 26.2732 8.23852Q26.196 8.38289 26.1051 8.51901Q26.0141 8.65513 25.9103 8.78168Q25.8064 8.90822 25.6906 9.02398Q25.5749 9.13974 25.4483 9.2436Q25.3218 9.34745 25.1857 9.4384Q25.0496 9.52935 24.9052 9.60652Q24.7608 9.68369 24.6096 9.74634Q24.4583 9.80899 24.3017 9.85651Q24.145 9.90403 23.9844 9.93597Q23.8239 9.96791 23.661 9.98395Q23.498 10 23.3343 10L3.33233 10Q3.16863 10 3.00571 9.98395Q2.84279 9.96791 2.68223 9.93597Q2.52167 9.90403 2.36501 9.85651Q2.20835 9.80899 2.0571 9.74634Q1.90586 9.68369 1.76148 9.60652Q1.61711 9.52935 1.48099 9.4384Q1.34487 9.34745 1.21832 9.2436Q1.09178 9.13974 0.976018 9.02398Q0.860259 8.90822 0.756405 8.78168Q0.65255 8.65513 0.561599 8.51901Q0.470649 8.38289 0.393478 8.23852Q0.316307 8.09414 0.253659 7.94289Q0.191011 7.79165 0.143489 7.63499Q0.0959675 7.47833 0.0640298 7.31777Q0.0320922 7.15721 0.0160461 6.99429Q0 6.83137 0 6.66767L0 3.33233Q0 3.16863 0.0160461 3.00571Q0.0320922 2.84279 0.0640298 2.68223Q0.0959675 2.52167 0.143489 2.36501Q0.191011 2.20835 0.253659 2.0571Q0.316307 1.90586 0.393478 1.76148Q0.470649 1.61711 0.561599 1.48099Q0.65255 1.34487 0.756405 1.21832Q0.860259 1.09178 0.976018 0.976018Q1.09178 0.860259 1.21832 0.756405Q1.34487 0.65255 1.48099 0.561599Q1.61711 0.470649 1.76148 0.393478Q1.90586 0.316307 2.0571 0.253659Q2.20835 0.191011 2.36501 0.143489Q2.52167 0.0959675 2.68223 0.0640298Q2.84279 0.0320922 3.00571 0.0160461Q3.16863 0 3.33233 0Z" transform="translate(6.666626 6.666748)" id="Rectangle" fill="none" stroke="#FFFFFF" stroke-width="2.5" stroke-linecap="round" stroke-linejoin="round" />
      <path d="M3.33233 0L23.3343 0Q23.498 0 23.661 0.0160461Q23.8239 0.0320922 23.9844 0.0640298Q24.145 0.0959675 24.3017 0.143489Q24.4583 0.191011 24.6096 0.253659Q24.7608 0.316307 24.9052 0.393478Q25.0496 0.470649 25.1857 0.561599Q25.3218 0.65255 25.4483 0.756405Q25.5749 0.860259 25.6906 0.976018Q25.8064 1.09178 25.9103 1.21832Q26.0141 1.34487 26.1051 1.48099Q26.196 1.61711 26.2732 1.76148Q26.3504 1.90586 26.413 2.0571Q26.4757 2.20835 26.5232 2.36501Q26.5707 2.52167 26.6026 2.68223Q26.6346 2.84279 26.6506 3.00571Q26.6667 3.16863 26.6667 3.33233L26.6667 6.66767Q26.6667 6.83138 26.6506 6.99429Q26.6346 7.15721 26.6026 7.31777Q26.5707 7.47834 26.5232 7.63499Q26.4757 7.79165 26.413 7.9429Q26.3504 8.09414 26.2732 8.23852Q26.196 8.3829 26.1051 8.51901Q26.0141 8.65513 25.9103 8.78168Q25.8064 8.90823 25.6906 9.02398Q25.5749 9.13974 25.4483 9.2436Q25.3218 9.34745 25.1857 9.4384Q25.0496 9.52935 24.9052 9.60652Q24.7608 9.68369 24.6096 9.74634Q24.4583 9.80899 24.3017 9.85651Q24.145 9.90403 23.9844 9.93597Q23.8239 9.96791 23.661 9.98396Q23.498 10 23.3343 10L3.33233 10Q3.16863 10 3.00571 9.98396Q2.84279 9.96791 2.68223 9.93597Q2.52167 9.90403 2.36501 9.85651Q2.20835 9.80899 2.0571 9.74634Q1.90586 9.68369 1.76148 9.60652Q1.61711 9.52935 1.48099 9.4384Q1.34487 9.34745 1.21832 9.2436Q1.09178 9.13974 0.976018 9.02398Q0.860259 8.90823 0.756405 8.78168Q0.65255 8.65513 0.561599 8.51901Q0.470649 8.3829 0.393478 8.23852Q0.316307 8.09414 0.253659 7.9429Q0.191011 7.79165 0.143489 7.63499Q0.0959675 7.47833 0.0640298 7.31777Q0.0320922 7.15721 0.0160461 6.99429Q0 6.83138 0 6.66767L0 3.33233Q0 3.16863 0.0160461 3.00571Q0.0320922 2.84279 0.0640298 2.68223Q0.0959675 2.52167 0.143489 2.36501Q0.191011 2.20835 0.253659 2.0571Q0.316307 1.90586 0.393478 1.76148Q0.470649 1.61711 0.561599 1.48099Q0.65255 1.34487 0.756405 1.21832Q0.86026 1.09178 0.976018 0.976018Q1.09178 0.860259 1.21832 0.756405Q1.34487 0.65255 1.48099 0.561599Q1.61711 0.470649 1.76148 0.393478Q1.90586 0.316307 2.0571 0.253659Q2.20835 0.191011 2.36501 0.143489Q2.52167 0.0959675 2.68223 0.0640298Q2.84279 0.0320922 3.00571 0.0160461Q3.16863 0 3.33233 0L3.33233 0Z" transform="translate(6.666626 23.33325)" id="Rectangle" fill="none" stroke="#FFFFFF" stroke-width="2.5" stroke-linecap="round" stroke-linejoin="round" />
    </g>
  </g>
</svg>